Coordinates
version=1
nRows=22
nColumns=34
inDegrees=no

Units are S.I. units (second, meters, Newtons, ...)
If the header above contains a line with 'inDegrees', this indicates whether rotational values are in degrees (yes) or radians (no).

endheader
time	pelvis_tilt	pelvis_list	pelvis_rotation	pelvis_tx	pelvis_ty	pelvis_tz	hip_flexion_r	hip_adduction_r	hip_rotation_r	knee_angle_r	ankle_angle_r	subtalar_angle_r	mtp_angle_r	hip_flexion_l	hip_adduction_l	hip_rotation_l	knee_angle_l	ankle_angle_l	subtalar_angle_l	mtp_angle_l	lumbar_extension	lumbar_bending	lumbar_rotation	arm_flex_r	arm_add_r	arm_rot_r	elbow_flex_r	pro_sup_r	arm_flex_l	arm_add_l	arm_rot_l	elbow_flex_l	pro_sup_l
6.69	-0.819919	0.0663503	0.0807765	-0.399901	0.657195	-0.53536	1.95195	-0.214661	0.113847	1.43403	0.356661	-0.500158	-0.00241763	1.8808	-0.305503	-0.0799333	1.31113	0.295766	-0.149742	-0.00241763	-0.47522	0.0345868	0.0212563	1.87631	-0.226968	0.649617	2.22525	2.09	1.72224	-0.139479	0.408441	2.31729	2.09
6.7	-0.821072	0.0649648	0.0786044	-0.400079	0.656674	-0.53493	1.95315	-0.211926	0.112008	1.43424	0.35577	-0.50199	-0.00241763	1.88404	-0.30784	-0.0768152	1.31249	0.295364	-0.151175	-0.00241763	-0.475853	0.0340156	0.0228352	1.87593	-0.22484	0.648601	2.22519	2.09	1.72262	-0.139703	0.409575	2.3191	2.09
6.71	-0.821396	0.0639844	0.077346	-0.400278	0.656237	-0.534616	1.95389	-0.210266	0.111065	1.43488	0.355316	-0.503427	-0.00241763	1.88611	-0.308793	-0.074068	1.31353	0.29472	-0.153468	-0.00241763	-0.476932	0.0335572	0.0239244	1.87599	-0.223349	0.647885	2.22463	2.09	1.72266	-0.139311	0.410379	2.31991	2.09
6.72	-0.821393	0.0636201	0.0776999	-0.400422	0.655944	-0.53452	1.95457	-0.210759	0.110958	1.43582	0.355481	-0.503869	-0.00241763	1.88695	-0.307799	-0.0725938	1.31392	0.294085	-0.155426	-0.00241763	-0.478142	0.0329281	0.0232057	1.87585	-0.222642	0.646688	2.22459	2.09	1.72318	-0.138984	0.412561	2.32024	2.09
6.73	-0.822593	0.0631466	0.0781763	-0.400425	0.655724	-0.534456	1.95591	-0.211664	0.110223	1.43629	0.356107	-0.503346	-0.00241763	1.88843	-0.306724	-0.0714856	1.31384	0.29385	-0.15604	-0.00241763	-0.47767	0.0324158	0.0218807	1.87478	-0.221554	0.645594	2.2252	2.09	1.72324	-0.139446	0.415272	2.32176	2.09
6.74	-0.824208	0.0624158	0.0778875	-0.400374	0.655517	-0.534294	1.95724	-0.211616	0.109039	1.43639	0.356984	-0.502474	-0.00241763	1.89039	-0.306432	-0.0698485	1.31379	0.293785	-0.15676	-0.00241763	-0.476028	0.031768	0.0208851	1.87288	-0.219991	0.644491	2.22547	2.09	1.72238	-0.139698	0.416829	2.32347	2.09
6.75	-0.823957	0.0614874	0.0765711	-0.400365	0.655375	-0.533985	1.9567	-0.210323	0.107655	1.4366	0.357763	-0.502099	-0.00241763	1.89116	-0.307289	-0.0673391	1.31439	0.293718	-0.158086	-0.00241763	-0.475832	0.030554	0.0210041	1.8712	-0.219231	0.64272	2.22501	2.09	1.72189	-0.13877	0.417584	2.3234	2.09
6.76	-0.821751	0.0600667	0.0743402	-0.400315	0.655393	-0.533574	1.95398	-0.208337	0.105248	1.43677	0.358084	-0.502504	-0.00241763	1.89059	-0.309386	-0.0641329	1.31564	0.293885	-0.158374	-0.00241763	-0.477617	0.0293737	0.0227941	1.87058	-0.219557	0.64097	2.22441	2.09	1.72211	-0.137222	0.418518	2.32215	2.09
6.77	-0.819724	0.0583879	0.0721186	-0.400137	0.655542	-0.533199	1.95106	-0.206706	0.102126	1.43665	0.358263	-0.502684	-0.00241763	1.88997	-0.311583	-0.0610542	1.31677	0.294331	-0.157425	-0.00241763	-0.479023	0.028689	0.0251804	1.87037	-0.219709	0.639798	2.2241	2.09	1.72182	-0.135952	0.419617	2.32152	2.09
6.78	-0.81911	0.0572177	0.0705947	-0.39985	0.655718	-0.532899	1.94939	-0.205745	0.0996204	1.43621	0.358693	-0.501402	-0.00241763	1.88984	-0.312999	-0.0589252	1.31718	0.294861	-0.156531	-0.00241763	-0.478364	0.0278156	0.0264865	1.86936	-0.219038	0.638639	2.22402	2.09	1.72087	-0.135468	0.420811	2.32188	2.09
6.79	-0.819088	0.0565929	0.0694097	-0.399497	0.655919	-0.53262	1.94815	-0.205063	0.0976606	1.43552	0.359261	-0.498693	-0.00241763	1.8896	-0.314102	-0.0575812	1.31716	0.295564	-0.15592	-0.00241763	-0.476448	0.0265233	0.0267624	1.86767	-0.21839	0.637762	2.22385	2.09	1.72001	-0.135835	0.422105	2.32253	2.09
6.8	-0.818677	0.0558429	0.0678732	-0.399083	0.656212	-0.532336	1.94616	-0.204224	0.0951864	1.43471	0.360239	-0.495791	-0.00241763	1.88891	-0.315589	-0.0561304	1.31717	0.296729	-0.155181	-0.00241763	-0.474314	0.0254034	0.0274574	1.86626	-0.217907	0.637478	2.22298	2.09	1.71864	-0.136509	0.423076	2.32286	2.09
6.81	-0.818004	0.0547429	0.0658179	-0.398603	0.656607	-0.532019	1.94354	-0.202891	0.0921552	1.43386	0.362321	-0.493464	-0.00241763	1.88801	-0.317595	-0.0542914	1.3172	0.298317	-0.154157	-0.00241763	-0.471759	0.0244704	0.0291065	1.86519	-0.216648	0.636561	2.221	2.09	1.71619	-0.137019	0.423359	2.32281	2.09
6.82	-0.81728	0.0536157	0.0640399	-0.398062	0.657113	-0.531754	1.94076	-0.201788	0.0893536	1.43296	0.364976	-0.491306	-0.00241763	1.88673	-0.319217	-0.0527073	1.31685	0.299917	-0.15293	-0.00241763	-0.468729	0.0236748	0.0304422	1.8639	-0.215471	0.634898	2.21828	2.09	1.71382	-0.137555	0.422992	2.32248	2.09
6.83	-0.816189	0.0525344	0.0633012	-0.39749	0.657745	-0.531723	1.93767	-0.202129	0.0869303	1.43201	0.367208	-0.48842	-0.00241763	1.88463	-0.319361	-0.0515967	1.31604	0.301253	-0.151863	-0.00241763	-0.46565	0.0234242	0.0303871	1.86224	-0.216469	0.634163	2.21521	2.09	1.71238	-0.138341	0.42249	2.32155	2.09
6.84	-0.814627	0.0511773	0.0625651	-0.39689	0.658446	-0.531814	1.93388	-0.202778	0.0841902	1.43082	0.369018	-0.484896	-0.00241763	1.88214	-0.319236	-0.0501128	1.3153	0.302513	-0.150823	-0.00241763	-0.462282	0.0233747	0.0301912	1.8605	-0.218775	0.634118	2.21115	2.09	1.71099	-0.139189	0.421949	2.31954	2.09
6.85	-0.812815	0.0494304	0.0603124	-0.396203	0.659199	-0.53169	1.92921	-0.201359	0.080824	1.42908	0.370807	-0.481691	-0.00241763	1.8798	-0.321108	-0.0477988	1.31501	0.304195	-0.149043	-0.00241763	-0.458282	0.0229241	0.0316553	1.85916	-0.219263	0.632541	2.20505	2.09	1.7088	-0.140141	0.419982	2.31678	2.09
6.86	-0.811064	0.0475496	0.0572965	-0.395403	0.660098	-0.531373	1.92404	-0.198516	0.0772355	1.42686	0.37262	-0.479029	-0.00241763	1.87731	-0.324157	-0.0454141	1.31448	0.306498	-0.146561	-0.00241763	-0.453763	0.0225328	0.0341703	1.85823	-0.21771	0.628421	2.19744	2.09	1.70644	-0.141577	0.415918	2.3137	2.09
6.87	-0.80982	0.0456954	0.0554063	-0.39452	0.66118	-0.531223	1.9191	-0.197119	0.0735302	1.4244	0.374697	-0.475906	-0.00241763	1.87445	-0.325498	-0.043575	1.31287	0.308945	-0.144234	-0.00241763	-0.448372	0.0227588	0.0358445	1.85666	-0.216956	0.622433	2.18998	2.09	1.70449	-0.14349	0.411562	2.30959	2.09
6.88	-0.808648	0.0439831	0.0548364	-0.39357	0.662392	-0.531334	1.91416	-0.197736	0.0698872	1.42193	0.377259	-0.471711	-0.00241763	1.87096	-0.324697	-0.0421083	1.31056	0.310991	-0.1423	-0.00241763	-0.442243	0.0231069	0.0361574	1.85402	-0.218263	0.61544	2.18242	2.09	1.70285	-0.145492	0.407948	2.30348	2.09
6.89	-0.805976	0.0427062	0.0543479	-0.392563	0.663728	-0.531418	1.90778	-0.198216	0.0671962	1.41963	0.381243	-0.465831	-0.00241763	1.8658	-0.32389	-0.0409027	1.30845	0.312634	-0.140386	-0.00241763	-0.437075	0.0227123	0.0359953	1.8515	-0.220433	0.607732	2.17275	2.09	1.70201	-0.147291	0.403447	2.29485	2.09
6.9	-0.801897	0.0416573	0.0525807	-0.391515	0.665154	-0.531198	1.89988	-0.196307	0.06504	1.41711	0.383142	-0.462852	-0.00241763	1.85949	-0.325207	-0.0397151	1.30689	0.314068	-0.138242	-0.00241763	-0.432827	0.0214371	0.0371658	1.84961	-0.222498	0.599312	2.16047	2.09	1.70227	-0.14883	0.396813	2.28348	2.09
